<mxfile host="app.diagrams.net" modified="2020-11-03T22:13:38.610Z" agent="5.0 (Macintosh; Intel Mac OS X 10_15_3) AppleWebKit/537.36 (KHTML, like Gecko) Chrome/86.0.4240.111 Safari/537.36" etag="FL99NSDnapB8KLJs7hYK" version="13.8.8" type="github">
  <diagram id="uVoaCouMMmqX9HdrvShr" name="Page-1">
    <mxGraphModel dx="2365" dy="1353" grid="1" gridSize="10" guides="1" tooltips="1" connect="1" arrows="1" fold="1" page="1" pageScale="1" pageWidth="850" pageHeight="1100" background="#ffffff" math="0" shadow="0">
      <root>
        <mxCell id="0" />
        <mxCell id="1" parent="0" />
        <mxCell id="946j2WPE0hznvTFnaqsg-1" value="" style="rounded=0;whiteSpace=wrap;html=1;fillColor=#dae8fc;strokeColor=#6c8ebf;" vertex="1" parent="1">
          <mxGeometry x="40" y="10" width="790" height="60" as="geometry" />
        </mxCell>
        <mxCell id="946j2WPE0hznvTFnaqsg-2" value="&lt;font style=&quot;font-size: 25px&quot;&gt;flowchart usulan&lt;/font&gt;" style="text;html=1;strokeColor=none;fillColor=none;align=center;verticalAlign=middle;whiteSpace=wrap;rounded=0;" vertex="1" parent="1">
          <mxGeometry x="295" y="20" width="280" height="40" as="geometry" />
        </mxCell>
        <mxCell id="946j2WPE0hznvTFnaqsg-3" value="" style="rounded=0;whiteSpace=wrap;html=1;fillColor=#dae8fc;strokeColor=#6c8ebf;" vertex="1" parent="1">
          <mxGeometry x="40" y="70" width="400" height="60" as="geometry" />
        </mxCell>
        <mxCell id="946j2WPE0hznvTFnaqsg-4" value="&lt;font style=&quot;font-size: 20px&quot;&gt;guru&lt;/font&gt;" style="text;html=1;strokeColor=none;fillColor=none;align=center;verticalAlign=middle;whiteSpace=wrap;rounded=0;" vertex="1" parent="1">
          <mxGeometry x="200" y="85" width="80" height="30" as="geometry" />
        </mxCell>
        <mxCell id="946j2WPE0hznvTFnaqsg-6" value="" style="rounded=0;whiteSpace=wrap;html=1;fillColor=#dae8fc;strokeColor=#6c8ebf;" vertex="1" parent="1">
          <mxGeometry x="440" y="70" width="390" height="60" as="geometry" />
        </mxCell>
        <mxCell id="946j2WPE0hznvTFnaqsg-7" value="&lt;font style=&quot;font-size: 20px&quot;&gt;Murid&lt;/font&gt;" style="text;html=1;strokeColor=none;fillColor=none;align=center;verticalAlign=middle;whiteSpace=wrap;rounded=0;" vertex="1" parent="1">
          <mxGeometry x="565" y="70" width="140" height="60" as="geometry" />
        </mxCell>
        <mxCell id="946j2WPE0hznvTFnaqsg-8" value="" style="strokeWidth=2;html=1;shape=mxgraph.flowchart.start_1;whiteSpace=wrap;" vertex="1" parent="1">
          <mxGeometry x="175" y="150" width="100" height="60" as="geometry" />
        </mxCell>
        <mxCell id="946j2WPE0hznvTFnaqsg-9" value="&lt;font style=&quot;font-size: 15px&quot;&gt;Start&lt;/font&gt;" style="text;html=1;strokeColor=none;fillColor=none;align=center;verticalAlign=middle;whiteSpace=wrap;rounded=0;" vertex="1" parent="1">
          <mxGeometry x="200" y="165" width="50" height="30" as="geometry" />
        </mxCell>
        <mxCell id="946j2WPE0hznvTFnaqsg-10" value="" style="rounded=0;whiteSpace=wrap;html=1;" vertex="1" parent="1">
          <mxGeometry x="175" y="260" width="105" height="50" as="geometry" />
        </mxCell>
        <mxCell id="946j2WPE0hznvTFnaqsg-11" value="membuat tugas" style="text;html=1;strokeColor=none;fillColor=none;align=center;verticalAlign=middle;whiteSpace=wrap;rounded=0;" vertex="1" parent="1">
          <mxGeometry x="192.5" y="265" width="70" height="40" as="geometry" />
        </mxCell>
        <mxCell id="946j2WPE0hznvTFnaqsg-12" value="" style="endArrow=classic;html=1;" edge="1" parent="1">
          <mxGeometry width="50" height="50" relative="1" as="geometry">
            <mxPoint x="227" y="210" as="sourcePoint" />
            <mxPoint x="227" y="260" as="targetPoint" />
          </mxGeometry>
        </mxCell>
        <mxCell id="946j2WPE0hznvTFnaqsg-13" value="" style="rounded=0;whiteSpace=wrap;html=1;" vertex="1" parent="1">
          <mxGeometry x="175" y="360" width="105" height="60" as="geometry" />
        </mxCell>
        <mxCell id="946j2WPE0hznvTFnaqsg-14" value="input tugas" style="text;html=1;strokeColor=none;fillColor=none;align=center;verticalAlign=middle;whiteSpace=wrap;rounded=0;" vertex="1" parent="1">
          <mxGeometry x="195" y="370" width="60" height="40" as="geometry" />
        </mxCell>
        <mxCell id="946j2WPE0hznvTFnaqsg-15" value="" style="endArrow=classic;html=1;" edge="1" parent="1">
          <mxGeometry width="50" height="50" relative="1" as="geometry">
            <mxPoint x="227" y="310" as="sourcePoint" />
            <mxPoint x="227" y="360" as="targetPoint" />
          </mxGeometry>
        </mxCell>
        <mxCell id="946j2WPE0hznvTFnaqsg-16" value="" style="strokeWidth=2;html=1;shape=mxgraph.flowchart.database;whiteSpace=wrap;" vertex="1" parent="1">
          <mxGeometry x="60" y="360" width="60" height="60" as="geometry" />
        </mxCell>
        <mxCell id="946j2WPE0hznvTFnaqsg-17" value="data kelas" style="text;html=1;strokeColor=none;fillColor=none;align=center;verticalAlign=middle;whiteSpace=wrap;rounded=0;" vertex="1" parent="1">
          <mxGeometry x="65" y="380" width="50" height="30" as="geometry" />
        </mxCell>
        <mxCell id="946j2WPE0hznvTFnaqsg-18" value="" style="endArrow=classic;html=1;" edge="1" parent="1">
          <mxGeometry width="50" height="50" relative="1" as="geometry">
            <mxPoint x="117" y="394.5" as="sourcePoint" />
            <mxPoint x="177" y="395" as="targetPoint" />
          </mxGeometry>
        </mxCell>
        <mxCell id="946j2WPE0hznvTFnaqsg-20" value="" style="strokeWidth=2;html=1;shape=mxgraph.flowchart.database;whiteSpace=wrap;" vertex="1" parent="1">
          <mxGeometry x="192.5" y="460" width="60" height="60" as="geometry" />
        </mxCell>
        <mxCell id="946j2WPE0hznvTFnaqsg-21" value="data tugas" style="text;html=1;strokeColor=none;fillColor=none;align=center;verticalAlign=middle;whiteSpace=wrap;rounded=0;" vertex="1" parent="1">
          <mxGeometry x="192.5" y="480" width="57.5" height="40" as="geometry" />
        </mxCell>
        <mxCell id="946j2WPE0hznvTFnaqsg-22" value="" style="endArrow=classic;html=1;" edge="1" parent="1">
          <mxGeometry width="50" height="50" relative="1" as="geometry">
            <mxPoint x="224.5" y="420" as="sourcePoint" />
            <mxPoint x="225" y="460" as="targetPoint" />
          </mxGeometry>
        </mxCell>
        <mxCell id="946j2WPE0hznvTFnaqsg-23" value="" style="rounded=0;whiteSpace=wrap;html=1;" vertex="1" parent="1">
          <mxGeometry x="172.5" y="560" width="105" height="60" as="geometry" />
        </mxCell>
        <mxCell id="946j2WPE0hznvTFnaqsg-24" value="notifikasi tugas" style="text;html=1;strokeColor=none;fillColor=none;align=center;verticalAlign=middle;whiteSpace=wrap;rounded=0;" vertex="1" parent="1">
          <mxGeometry x="192.5" y="570" width="60" height="40" as="geometry" />
        </mxCell>
        <mxCell id="946j2WPE0hznvTFnaqsg-25" value="" style="endArrow=classic;html=1;" edge="1" parent="1">
          <mxGeometry width="50" height="50" relative="1" as="geometry">
            <mxPoint x="222" y="520" as="sourcePoint" />
            <mxPoint x="222" y="560" as="targetPoint" />
          </mxGeometry>
        </mxCell>
        <mxCell id="946j2WPE0hznvTFnaqsg-26" value="" style="edgeStyle=elbowEdgeStyle;elbow=horizontal;endArrow=classic;html=1;" edge="1" parent="1">
          <mxGeometry width="50" height="50" relative="1" as="geometry">
            <mxPoint x="277.5" y="590" as="sourcePoint" />
            <mxPoint x="560" y="180" as="targetPoint" />
          </mxGeometry>
        </mxCell>
        <mxCell id="946j2WPE0hznvTFnaqsg-27" value="" style="rounded=0;whiteSpace=wrap;html=1;" vertex="1" parent="1">
          <mxGeometry x="560" y="150" width="110" height="60" as="geometry" />
        </mxCell>
        <mxCell id="946j2WPE0hznvTFnaqsg-28" value="mengerjakan tugas" style="text;html=1;strokeColor=none;fillColor=none;align=center;verticalAlign=middle;whiteSpace=wrap;rounded=0;" vertex="1" parent="1">
          <mxGeometry x="565" y="165" width="100" height="30" as="geometry" />
        </mxCell>
        <mxCell id="946j2WPE0hznvTFnaqsg-29" value="" style="rounded=0;whiteSpace=wrap;html=1;" vertex="1" parent="1">
          <mxGeometry x="560" y="255" width="110" height="55" as="geometry" />
        </mxCell>
        <mxCell id="946j2WPE0hznvTFnaqsg-30" value="input tugas" style="text;html=1;strokeColor=none;fillColor=none;align=center;verticalAlign=middle;whiteSpace=wrap;rounded=0;" vertex="1" parent="1">
          <mxGeometry x="585" y="265" width="60" height="30" as="geometry" />
        </mxCell>
        <mxCell id="946j2WPE0hznvTFnaqsg-31" value="" style="endArrow=classic;html=1;" edge="1" parent="1">
          <mxGeometry width="50" height="50" relative="1" as="geometry">
            <mxPoint x="614.5" y="210" as="sourcePoint" />
            <mxPoint x="615" y="255" as="targetPoint" />
          </mxGeometry>
        </mxCell>
        <mxCell id="946j2WPE0hznvTFnaqsg-33" value="" style="strokeWidth=2;html=1;shape=mxgraph.flowchart.database;whiteSpace=wrap;" vertex="1" parent="1">
          <mxGeometry x="585" y="350" width="60" height="60" as="geometry" />
        </mxCell>
        <mxCell id="946j2WPE0hznvTFnaqsg-34" value="data hasil tugas" style="text;html=1;strokeColor=none;fillColor=none;align=center;verticalAlign=middle;whiteSpace=wrap;rounded=0;" vertex="1" parent="1">
          <mxGeometry x="585" y="360" width="60" height="50" as="geometry" />
        </mxCell>
        <mxCell id="946j2WPE0hznvTFnaqsg-35" value="" style="endArrow=classic;html=1;" edge="1" parent="1">
          <mxGeometry width="50" height="50" relative="1" as="geometry">
            <mxPoint x="614.5" y="310" as="sourcePoint" />
            <mxPoint x="615" y="350" as="targetPoint" />
          </mxGeometry>
        </mxCell>
        <mxCell id="946j2WPE0hznvTFnaqsg-36" value="" style="rounded=0;whiteSpace=wrap;html=1;" vertex="1" parent="1">
          <mxGeometry x="565" y="449" width="110" height="60" as="geometry" />
        </mxCell>
        <mxCell id="946j2WPE0hznvTFnaqsg-37" value="notifikasi tugas selesai" style="text;html=1;strokeColor=none;fillColor=none;align=center;verticalAlign=middle;whiteSpace=wrap;rounded=0;" vertex="1" parent="1">
          <mxGeometry x="585" y="454" width="70" height="50" as="geometry" />
        </mxCell>
        <mxCell id="946j2WPE0hznvTFnaqsg-38" value="" style="endArrow=classic;html=1;" edge="1" parent="1">
          <mxGeometry width="50" height="50" relative="1" as="geometry">
            <mxPoint x="614.5" y="410" as="sourcePoint" />
            <mxPoint x="615" y="450" as="targetPoint" />
          </mxGeometry>
        </mxCell>
        <mxCell id="946j2WPE0hznvTFnaqsg-39" value="" style="edgeStyle=elbowEdgeStyle;elbow=horizontal;endArrow=classic;html=1;" edge="1" parent="1">
          <mxGeometry width="50" height="50" relative="1" as="geometry">
            <mxPoint x="565" y="480" as="sourcePoint" />
            <mxPoint x="280" y="680" as="targetPoint" />
          </mxGeometry>
        </mxCell>
        <mxCell id="946j2WPE0hznvTFnaqsg-40" value="" style="rounded=0;whiteSpace=wrap;html=1;" vertex="1" parent="1">
          <mxGeometry x="170" y="650" width="110" height="50" as="geometry" />
        </mxCell>
        <mxCell id="946j2WPE0hznvTFnaqsg-41" value="menilai tugas" style="text;html=1;strokeColor=none;fillColor=none;align=center;verticalAlign=middle;whiteSpace=wrap;rounded=0;" vertex="1" parent="1">
          <mxGeometry x="195" y="657.5" width="65" height="35" as="geometry" />
        </mxCell>
        <mxCell id="946j2WPE0hznvTFnaqsg-42" value="" style="strokeWidth=2;html=1;shape=mxgraph.flowchart.database;whiteSpace=wrap;" vertex="1" parent="1">
          <mxGeometry x="60" y="645" width="60" height="60" as="geometry" />
        </mxCell>
        <mxCell id="946j2WPE0hznvTFnaqsg-43" value="data hasil tugas" style="text;html=1;strokeColor=none;fillColor=none;align=center;verticalAlign=middle;whiteSpace=wrap;rounded=0;" vertex="1" parent="1">
          <mxGeometry x="50" y="670" width="80" height="30" as="geometry" />
        </mxCell>
        <mxCell id="946j2WPE0hznvTFnaqsg-44" value="" style="endArrow=classic;html=1;" edge="1" parent="1">
          <mxGeometry width="50" height="50" relative="1" as="geometry">
            <mxPoint x="120" y="674.5" as="sourcePoint" />
            <mxPoint x="170" y="674.5" as="targetPoint" />
          </mxGeometry>
        </mxCell>
        <mxCell id="946j2WPE0hznvTFnaqsg-45" value="" style="strokeWidth=2;html=1;shape=mxgraph.flowchart.database;whiteSpace=wrap;" vertex="1" parent="1">
          <mxGeometry x="195" y="750" width="60" height="60" as="geometry" />
        </mxCell>
        <mxCell id="946j2WPE0hznvTFnaqsg-46" value="data nilai" style="text;html=1;strokeColor=none;fillColor=none;align=center;verticalAlign=middle;whiteSpace=wrap;rounded=0;" vertex="1" parent="1">
          <mxGeometry x="197.5" y="770" width="55" height="30" as="geometry" />
        </mxCell>
        <mxCell id="946j2WPE0hznvTFnaqsg-47" value="" style="endArrow=classic;html=1;" edge="1" parent="1">
          <mxGeometry width="50" height="50" relative="1" as="geometry">
            <mxPoint x="224.5" y="700" as="sourcePoint" />
            <mxPoint x="224.5" y="750" as="targetPoint" />
          </mxGeometry>
        </mxCell>
        <mxCell id="946j2WPE0hznvTFnaqsg-48" value="" style="endArrow=none;html=1;fillColor=#dae8fc;strokeColor=#6c8ebf;" edge="1" parent="1">
          <mxGeometry width="50" height="50" relative="1" as="geometry">
            <mxPoint x="440" y="820" as="sourcePoint" />
            <mxPoint x="440" y="130" as="targetPoint" />
          </mxGeometry>
        </mxCell>
      </root>
    </mxGraphModel>
  </diagram>
</mxfile>
